<svg width="16" height="12" fill="none" xmlns="http://www.w3.org/2000/svg"><mask id="a" fill="#fff"><path d="M14.5 0h-13C.673 0 0 .628 0 1.4v8.402c0 .772.673 1.4 1.5 1.4h13c.827 0 1.5-.628 1.5-1.4V1.4c0-.772-.673-1.4-1.5-1.4Zm0 .933c.068 0 .133.014.192.037L8 6.384 1.308.97A.529.529 0 0 1 1.5.933h13Zm0 9.335h-13c-.276 0-.5-.209-.5-.466V1.956l6.672 5.398A.52.52 0 0 0 8 7.468a.52.52 0 0 0 .328-.114L15 1.956v7.846c0 .257-.224.466-.5.466Z"/></mask><path d="M14.5 0h-13C.673 0 0 .628 0 1.4v8.402c0 .772.673 1.4 1.5 1.4h13c.827 0 1.5-.628 1.5-1.4V1.4c0-.772-.673-1.4-1.5-1.4Zm0 .933c.068 0 .133.014.192.037L8 6.384 1.308.97A.529.529 0 0 1 1.5.933h13Zm0 9.335h-13c-.276 0-.5-.209-.5-.466V1.956l6.672 5.398A.52.52 0 0 0 8 7.468a.52.52 0 0 0 .328-.114L15 1.956v7.846c0 .257-.224.466-.5.466Z" fill="#757575"/><path d="m14.692.97.629.777L16.66.663 15.054.038l-.362.932ZM8 6.384l-.629.777L8 7.67l.629-.509L8 6.384ZM1.308.97.946.037-.662.662.68 1.747 1.31.97ZM1 1.956l.629-.778L0-.139v2.095h1Zm6.672 5.398-.629.777.001.001.628-.778Zm.656 0 .628.778-.628-.778ZM15 1.956h1V-.14l-1.629 1.317.629.778Zm0 7.846h1-1ZM14.5-1h-13v2h13v-2Zm-13 0C.187-1-1 .012-1 1.4h2c0-.156.16-.4.5-.4v-2ZM-1 1.4v8.402h2V1.4h-2Zm0 8.402c0 1.388 1.187 2.4 2.5 2.4v-2c-.34 0-.5-.244-.5-.4h-2Zm2.5 2.4h13v-2h-13v2Zm13 0c1.313 0 2.5-1.012 2.5-2.4h-2c0 .156-.16.4-.5.4v2Zm2.5-2.4V1.4h-2v8.402h2ZM17 1.4C17 .012 15.813-1 14.5-1v2c.34 0 .5.244.5.4h2Zm-2.5.533a.472.472 0 0 1-.17-.031l.724-1.864a1.528 1.528 0 0 0-.554-.105v2Zm-.437-1.74L7.37 5.605l1.258 1.555 6.692-5.414L14.063.192ZM8.629 5.605 1.937.192.68 1.747l6.692 5.414 1.258-1.555ZM1.67 1.902a.472.472 0 0 1-.17.031v-2c-.198 0-.385.04-.554.104l.724 1.865Zm-.17.031h13v-2h-13v2Zm13 7.335h-13v2h13v-2Zm-13 0c.21 0 .5.175.5.534H0c0 .873.738 1.466 1.5 1.466v-2Zm.5.534V1.956H0v7.846h2ZM.371 2.733l6.672 5.398 1.258-1.554L1.63 1.178.371 2.733Zm6.673 5.399c.284.229.626.336.956.336v-2a.48.48 0 0 1 .3.108L7.045 8.132ZM8 8.468c.33 0 .672-.107.956-.336L7.699 6.576A.48.48 0 0 1 8 6.468v2Zm.957-.337 6.672-5.398-1.258-1.555-6.672 5.399L8.957 8.13ZM14 1.956v7.846h2V1.956h-2Zm0 7.846c0-.359.29-.534.5-.534v2c.762 0 1.5-.593 1.5-1.466h-2Z" fill="#000" mask="url(#a)"/></svg>